# Blender3D v248 OBJ File: 
# www.blender3d.org
mtllib normalpaintball.mtl
v 0.000000 -1.000000 0.000000
v 0.723600 -0.447215 0.525720
v -0.276385 -0.447215 0.850640
v -0.894425 -0.447215 0.000000
v -0.276385 -0.447215 -0.850640
v 0.723600 -0.447215 -0.525720
v 0.276385 0.447215 0.850640
v -0.723600 0.447215 0.525720
v -0.723600 0.447215 -0.525720
v 0.276385 0.447215 -0.850640
v 0.894425 0.447215 -0.000000
v 0.000000 1.000000 -0.000000
v 0.425323 -0.850654 0.309011
v -0.162456 -0.850654 0.499995
v 0.262869 -0.525738 0.809012
v 0.425323 -0.850654 -0.309011
v 0.850648 -0.525736 0.000000
v -0.525730 -0.850652 0.000000
v -0.688189 -0.525736 0.499997
v -0.162456 -0.850654 -0.499995
v -0.688189 -0.525736 -0.499997
v 0.262869 -0.525738 -0.809012
v 0.951058 -0.000000 -0.309013
v 0.951058 0.000000 0.309013
v 0.587786 0.000000 0.809017
v 0.000000 0.000000 1.000000
v -0.587786 0.000000 0.809017
v -0.951058 0.000000 0.309013
v -0.951058 -0.000000 -0.309013
v -0.587786 -0.000000 -0.809017
v 0.000000 -0.000000 -1.000000
v 0.587786 -0.000000 -0.809017
v 0.688189 0.525736 0.499997
v -0.262869 0.525738 0.809012
v -0.850648 0.525736 -0.000000
v -0.262869 0.525738 -0.809012
v 0.688189 0.525736 -0.499997
v 0.525730 0.850652 -0.000000
v 0.162456 0.850654 0.499995
v -0.425323 0.850654 0.309011
v -0.425323 0.850654 -0.309011
v 0.162456 0.850654 -0.499995
vt 0.209856 0.609398
vt 0.195596 0.702829
vt 0.126169 0.652388
vt 0.276312 0.676602
vt 0.302830 0.594986
vt 0.254003 0.745264
vt 0.111145 0.745264
vt 0.195596 0.787698
vt 0.126169 0.838139
vt 0.369577 0.661294
vt 0.326198 0.745264
vt 0.412014 0.745264
vt 0.369577 0.829233
vt 0.276312 0.813925
vt 0.302830 0.895541
vt 0.209856 0.881129
vt 0.004974 0.664442
vt 0.004974 0.826085
vt 0.910017 0.745264
vt 1.000981 0.664276
vt 1.000981 0.826251
vt 0.253916 0.483448
vt 0.100182 0.533399
vt 0.800833 0.594986
vt 0.751919 0.483448
vt 0.905968 0.533502
vt 0.502977 0.664276
vt 0.407964 0.533502
vt 0.624172 0.652388
vt 0.502977 0.664442
vt 0.598185 0.533399
vt 0.407964 0.957026
vt 0.502977 0.826251
vt 0.624172 0.838139
vt 0.598185 0.957128
vt 0.502977 0.826086
vt 0.100182 0.957128
vt 0.253916 1.007079
vt 0.800833 0.895541
vt 0.905968 0.957025
vt 0.751919 1.007079
vt 0.867581 0.661294
vt 0.707860 0.609398
vt 0.609148 0.745264
vt 0.707860 0.881129
vt 0.867581 0.829233
vt 0.774315 0.676602
vt 0.824201 0.745264
vt 0.752006 0.745264
vt 0.693599 0.702829
vt 0.693599 0.787698
vt 0.774315 0.813925
vn 0.471318 -0.661687 0.583121
vn 0.187594 -0.794658 0.577345
vn -0.038547 -0.661687 0.748789
vn 0.102381 -0.943523 0.315090
vn 0.700228 -0.661687 0.268049
vn 0.607061 -0.794656 0.000000
vn 0.700228 -0.661688 -0.268049
vn 0.331305 -0.943524 0.000000
vn -0.408939 -0.661686 0.628443
vn -0.491119 -0.794657 0.356821
vn -0.724044 -0.661694 0.194735
vn -0.268034 -0.943523 0.194737
vn -0.724044 -0.661694 -0.194735
vn -0.491119 -0.794657 -0.356821
vn -0.408939 -0.661686 -0.628443
vn -0.268034 -0.943523 -0.194737
vn -0.038547 -0.661687 -0.748789
vn 0.187594 -0.794658 -0.577345
vn 0.471317 -0.661687 -0.583121
vn 0.102381 -0.943523 -0.315090
vn 0.904981 -0.330393 0.268049
vn 0.982246 -0.187599 0.000000
vn 0.992077 0.125631 -0.000000
vn 0.904981 -0.330393 -0.268049
vn 0.024726 -0.330396 0.943519
vn 0.303531 -0.187597 0.934171
vn 0.306568 0.125651 0.943519
vn 0.534590 -0.330395 0.777851
vn -0.889698 -0.330386 0.315092
vn -0.794656 -0.187595 0.577348
vn -0.802607 0.125648 0.583125
vn -0.574584 -0.330397 0.748793
vn -0.574584 -0.330397 -0.748793
vn -0.794656 -0.187595 -0.577348
vn -0.802607 0.125648 -0.583125
vn -0.889698 -0.330386 -0.315092
vn 0.534590 -0.330395 -0.777851
vn 0.303531 -0.187597 -0.934171
vn 0.306568 0.125651 -0.943519
vn 0.024726 -0.330396 -0.943519
vn 0.889698 0.330386 0.315092
vn 0.794656 0.187595 0.577348
vn 0.574584 0.330397 0.748793
vn 0.802607 -0.125648 0.583125
vn -0.024726 0.330396 0.943519
vn -0.303531 0.187597 0.934171
vn -0.534590 0.330395 0.777851
vn -0.306568 -0.125651 0.943519
vn -0.904981 0.330393 0.268049
vn -0.982246 0.187599 0.000000
vn -0.904981 0.330393 -0.268049
vn -0.992077 -0.125631 0.000000
vn -0.534590 0.330395 -0.777851
vn -0.303531 0.187597 -0.934171
vn -0.024726 0.330396 -0.943519
vn -0.306568 -0.125651 -0.943519
vn 0.574584 0.330397 -0.748793
vn 0.794656 0.187595 -0.577348
vn 0.889698 0.330386 -0.315092
vn 0.802607 -0.125648 -0.583125
vn 0.408939 0.661686 0.628443
vn 0.491119 0.794657 0.356821
vn 0.268034 0.943523 0.194737
vn 0.724044 0.661694 0.194735
vn -0.471318 0.661687 0.583121
vn -0.187594 0.794658 0.577345
vn -0.102381 0.943523 0.315090
vn 0.038547 0.661687 0.748789
vn -0.700228 0.661687 -0.268049
vn -0.607061 0.794656 0.000000
vn -0.331305 0.943524 0.000000
vn -0.700228 0.661688 0.268049
vn 0.038547 0.661687 -0.748789
vn -0.187594 0.794658 -0.577345
vn -0.102381 0.943523 -0.315090
vn -0.471317 0.661687 -0.583121
vn 0.724044 0.661694 -0.194735
vn 0.491119 0.794657 -0.356821
vn 0.268034 0.943523 -0.194737
vn 0.408939 0.661686 -0.628443
usemtl None_lolpaint.tga
s off
f 15/1/1 13/2/1 2/3/1
f 13/2/2 15/1/2 14/4/2
f 3/5/3 14/4/3 15/1/3
f 14/4/4 1/6/4 13/2/4
f 17/7/5 2/3/5 13/2/5
f 13/2/6 16/8/6 17/7/6
f 6/9/7 17/7/7 16/8/7
f 13/2/8 1/6/8 16/8/8
f 19/10/9 14/4/9 3/5/9
f 14/4/10 19/10/10 18/11/10
f 4/12/11 18/11/11 19/10/11
f 18/11/12 1/6/12 14/4/12
f 21/13/13 18/11/13 4/12/13
f 18/11/14 21/13/14 20/14/14
f 5/15/15 20/14/15 21/13/15
f 20/14/16 1/6/16 18/11/16
f 22/16/17 20/14/17 5/15/17
f 20/14/18 22/16/18 16/8/18
f 6/9/19 16/8/19 22/16/19
f 16/8/20 1/6/20 20/14/20
f 24/17/21 2/3/21 17/7/21
f 17/7/22 23/18/22 24/17/22
f 11/19/23 24/20/23 23/21/23
f 23/18/24 17/7/24 6/9/24
f 26/22/25 3/5/25 15/1/25
f 15/1/26 25/23/26 26/22/26
f 7/24/27 26/25/27 25/26/27
f 25/23/28 15/1/28 2/3/28
f 28/27/29 4/12/29 19/10/29
f 19/10/30 27/28/30 28/27/30
f 8/29/31 28/30/31 27/31/31
f 27/28/32 19/10/32 3/5/32
f 30/32/33 5/15/33 21/13/33
f 21/13/34 29/33/34 30/32/34
f 9/34/35 30/35/35 29/36/35
f 29/33/36 21/13/36 4/12/36
f 32/37/37 6/9/37 22/16/37
f 22/16/38 31/38/38 32/37/38
f 10/39/39 32/40/39 31/41/39
f 31/38/40 22/16/40 5/15/40
f 33/42/41 24/20/41 11/19/41
f 24/20/42 33/42/42 25/26/42
f 7/24/43 25/26/43 33/42/43
f 25/23/44 2/3/44 24/17/44
f 34/43/45 26/25/45 7/24/45
f 26/25/46 34/43/46 27/31/46
f 8/29/47 27/31/47 34/43/47
f 27/28/48 3/5/48 26/22/48
f 35/44/49 28/30/49 8/29/49
f 28/30/50 35/44/50 29/36/50
f 9/34/51 29/36/51 35/44/51
f 29/33/52 4/12/52 28/27/52
f 36/45/53 30/35/53 9/34/53
f 30/35/54 36/45/54 31/41/54
f 10/39/55 31/41/55 36/45/55
f 31/38/56 5/15/56 30/32/56
f 37/46/57 32/40/57 10/39/57
f 32/40/58 37/46/58 23/21/58
f 11/19/59 23/21/59 37/46/59
f 23/18/60 6/9/60 32/37/60
f 39/47/61 7/24/61 33/42/61
f 33/42/62 38/48/62 39/47/62
f 12/49/63 39/47/63 38/48/63
f 38/48/64 33/42/64 11/19/64
f 40/50/65 8/29/65 34/43/65
f 34/43/66 39/47/66 40/50/66
f 12/49/67 40/50/67 39/47/67
f 39/47/68 34/43/68 7/24/68
f 41/51/69 9/34/69 35/44/69
f 35/44/70 40/50/70 41/51/70
f 12/49/71 41/51/71 40/50/71
f 40/50/72 35/44/72 8/29/72
f 42/52/73 10/39/73 36/45/73
f 36/45/74 41/51/74 42/52/74
f 12/49/75 42/52/75 41/51/75
f 41/51/76 36/45/76 9/34/76
f 38/48/77 11/19/77 37/46/77
f 37/46/78 42/52/78 38/48/78
f 12/49/79 38/48/79 42/52/79
f 42/52/80 37/46/80 10/39/80
